<?xml version="1.0" encoding="iso-8859-1"?>
<!-- Generator: Adobe Illustrator 19.0.0, SVG Export Plug-In . SVG Version: 6.00 Build 0)  -->
<svg version="1.1" id="Layer_1" xmlns="http://www.w3.org/2000/svg" xmlns:xlink="http://www.w3.org/1999/xlink" x="0px" y="0px"
	 viewBox="0 0 512 512" style="enable-background:new 0 0 512 512;" xml:space="preserve">
<path style="fill:#E9EBEF;" d="M256,396.8c-146.389,0-237.116-128.043-240.905-133.495L10.01,256l5.086-7.305
	C18.884,243.243,109.611,115.2,256,115.2s237.116,128.043,240.905,133.495L501.99,256l-5.086,7.305
	C493.116,268.757,402.389,396.8,256,396.8z M256,166.4c-49.408,0-89.6,40.192-89.6,89.6s40.192,89.6,89.6,89.6
	s89.6-40.192,89.6-89.6S305.408,166.4,256,166.4z"/>
<path style="fill:#6FB0B6;" d="M256,345.6c-49.408,0-89.6-40.192-89.6-89.6s40.192-89.6,89.6-89.6s89.6,40.192,89.6,89.6
	S305.408,345.6,256,345.6z"/>
<g>
	<path style="fill:#573A32;" d="M507.418,241.382C503.467,235.708,409.003,102.4,256,102.4S8.533,235.708,4.582,241.382
		c-6.11,8.789-6.11,20.446,0,29.235C8.533,276.292,102.997,409.6,256,409.6s247.467-133.308,251.418-138.982
		C513.528,261.828,513.528,250.172,507.418,241.382z M256,384C114.62,384,25.6,256,25.6,256S114.611,128,256,128
		s230.4,128,230.4,128S397.38,384,256,384z"/>
	<path style="fill:#573A32;" d="M256,153.6c-56.559,0-102.4,45.841-102.4,102.4c0,56.559,45.841,102.4,102.4,102.4
		S358.4,312.559,358.4,256S312.55,153.6,256,153.6z M256,332.8c-42.351,0-76.8-34.449-76.8-76.8c0-42.351,34.449-76.8,76.8-76.8
		s76.8,34.449,76.8,76.8C332.8,298.351,298.351,332.8,256,332.8z"/>
</g>
<g>
</g>
<g>
</g>
<g>
</g>
<g>
</g>
<g>
</g>
<g>
</g>
<g>
</g>
<g>
</g>
<g>
</g>
<g>
</g>
<g>
</g>
<g>
</g>
<g>
</g>
<g>
</g>
<g>
</g>
</svg>
